Coordinates
version=1
nRows=29
nColumns=24
inDegrees=yes

Units are S.I. units (second, meters, Newtons, ...)
Angles are in degrees.

endheader
time	pelvis_tilt	pelvis_list	pelvis_rotation	pelvis_tx	pelvis_ty	pelvis_tz	hip_flexion_r	hip_adduction_r	hip_rotation_r	knee_angle_r	ankle_angle_r	subtalar_angle_r	mtp_angle_r	hip_flexion_l	hip_adduction_l	hip_rotation_l	knee_angle_l	ankle_angle_l	subtalar_angle_l	mtp_angle_l	lumbar_extension	lumbar_bending	lumbar_rotation
      0.72883333	      0.10423642	      1.09468998	      0.62625348	     -0.40728136	      1.00579752	      0.30419392	      9.81129926	      1.76418037	      0.53141574	    -21.99822590	     15.55764302	     -3.98237477	      0.18608732	     15.38497611	      0.91442230	     -3.43744772	    -68.66207808	     -9.61769383	     -7.23891407	      5.31806286	    -13.47278054	      5.99309761	      0.86122096
      0.73300000	      0.09724715	      1.19680236	      0.74284967	     -0.40214497	      1.00657602	      0.30417085	      9.31586614	      1.66000207	      0.48118102	    -21.64773440	     15.60064099	     -4.06086891	      0.15771605	     15.91129661	      1.04984031	     -3.34391092	    -68.44977948	     -8.80623970	     -7.65483007	      5.29466224	    -13.50153182	      5.81393827	      0.95427518
      0.73716667	      0.16157287	      1.27126035	      0.85557863	     -0.39694766	      1.00750367	      0.30418591	      8.69262455	      1.59750937	      0.46904502	    -21.18700980	     15.57528748	     -4.22189065	      0.08966300	     16.33396656	      1.14159134	     -3.26156582	    -68.15478163	     -8.01329739	     -7.98550229	      5.22064435	    -13.60532270	      5.64594348	      1.19908060
      0.74133333	      0.16828204	      1.37798948	      0.95199149	     -0.39178969	      1.00830159	      0.30419850	      8.16211878	      1.49903565	      0.46110752	    -20.78934398	     15.57201844	     -4.35740399	      0.01678787	     16.81024956	      1.27123587	     -3.20128488	    -67.80291472	     -7.24670837	     -8.34413994	      5.13668080	    -13.64838273	      5.44660835	      1.38681245
      0.74550000	      0.15717645	      1.48924294	      1.04349220	     -0.38663179	      1.00906192	      0.30419289	      7.66117760	      1.39072150	      0.42822397	    -20.41332112	     15.58420307	     -4.42352155	     -0.01129697	     17.29113411	      1.40824427	     -3.15058804	    -67.38981075	     -6.49267371	     -8.72234610	      5.11201929	    -13.66050583	      5.26987743	      1.46786760
      0.74966667	      0.20531056	      1.58367850	      1.12887418	     -0.38146166	      1.00991003	      0.30423646	      7.05921353	      1.31583281	      0.45535950	    -19.95211266	     15.52812470	     -4.61210452	     -0.08877125	     17.68779567	      1.51698724	     -3.10467966	    -66.90559225	     -5.78417506	     -9.01497085	      5.01704482	    -13.75563878	      5.06674596	      1.72067337
      0.75383333	      0.22274105	      1.69170434	      1.19190562	     -0.37628907	      1.01070210	      0.30427926	      6.50466485	      1.22460660	      0.49402817	    -19.52108970	     15.48124653	     -4.76102357	     -0.19339649	     18.09862831	      1.63851560	     -3.08534772	    -66.35770518	     -5.08202915	     -9.33293005	      4.87090906	    -13.81563628	      4.87311061	      1.91875014
      0.75800000	      0.19151355	      1.81739080	      1.27485563	     -0.37113016	      1.01138429	      0.30425748	      6.02797128	      1.09936874	      0.44530718	    -19.14764767	     15.46822962	     -4.82185389	     -0.21898571	     18.55232081	      1.79546138	     -3.04441682	    -65.75687703	     -4.39901574	     -9.63632530	      4.84444027	    -13.79476581	      4.66875472	      1.98339873
      0.76216667	      0.26532013	      1.95045763	      1.34181847	     -0.36594425	      1.01226880	      0.30427565	      5.39012848	      0.98020739	      0.47529516	    -18.66742408	     15.38595705	     -4.98939588	     -0.28653134	     18.85624885	      1.95574792	     -3.00527991	    -65.05621070	     -3.77807224	     -9.87854123	      4.74479769	    -13.92722922	      4.43363297	      2.21136375
      0.76633333	      0.28002345	      2.06635484	      1.39791592	     -0.36076494	      1.01299353	      0.30430501	      4.83700635	      0.87770925	      0.49150786	    -18.23130713	     15.31835360	     -5.12362024	     -0.36047174	     19.21783890	      2.08904879	     -2.98757873	    -64.32583489	     -3.14570280	    -10.11323887	      4.62358039	    -13.97587949	      4.21538329	      2.39734692
      0.77050000	      0.26518798	      2.19413482	      1.45020176	     -0.35559224	      1.01364727	      0.30430522	      4.32449829	      0.75771539	      0.50012804	    -17.81283979	     15.25361813	     -5.23590231	     -0.43553784	     19.59369837	      2.24522095	     -2.96176405	    -63.53639292	     -2.53708765	    -10.32668459	      4.48814473	    -13.99212859	      3.99872353	      2.56988025
      0.77466667	      0.27378616	      2.29363606	      1.48862814	     -0.35043152	      1.01431987	      0.30431424	      3.77980957	      0.67113202	      0.53413709	    -17.37084770	     15.15177983	     -5.35951004	     -0.55164575	     19.92699557	      2.36684503	     -2.93913923	    -62.69572731	     -1.91856814	    -10.52475700	      4.25290767	    -14.04407142	      3.82481780	      2.76162632
      0.77883333	      0.22523476	      2.43304692	      1.54927526	     -0.34526349	      1.01487669	      0.30425591	      3.31824248	      0.52628412	      0.47644352	    -16.98484471	     15.08577750	     -5.39616054	     -0.58094500	     20.30447526	      2.55117007	     -2.88984186	    -61.79230573	     -1.35332749	    -10.69172154	      4.20178272	    -14.00939187	      3.59960092	      2.82570472
      0.78300000	      0.28419832	      2.56128462	      1.59102645	     -0.34006330	      1.01559777	      0.30422785	      2.70035444	      0.40389853	      0.47959029	    -16.50927539	     14.99834557	     -5.49365319	     -0.64236628	     20.53137808	      2.71519956	     -2.84613886	    -60.80693417	     -0.84791577	    -10.82090974	      4.06428073	    -14.11274676	      3.38494140	      3.02387823
      0.78716667	      0.27052544	      2.68314350	      1.62968239	     -0.33488526	      1.01615552	      0.30418137	      2.18456212	      0.28267958	      0.46730846	    -16.08220769	     14.90157532	     -5.56661829	     -0.70094677	     20.82778185	      2.87836145	     -2.79580715	    -59.78798415	     -0.33572647	    -10.93077404	      3.92119087	    -14.12743055	      3.17965945	      3.18575139
      0.79133333	      0.23133521	      2.79716722	      1.66805549	     -0.32972346	      1.01663393	      0.30409509	      1.71107717	      0.16325898	      0.42978130	    -15.68305244	     14.78350908	     -5.60498961	     -0.74036182	     21.13637369	      3.04332470	     -2.72690156	    -58.72291455	      0.17078683	    -11.03095057	      3.82306766	    -14.11236285	      3.00872044	      3.30415463
      0.79550000	      0.22084864	      2.90427429	      1.70670235	     -0.32454589	      1.01712697	      0.30401544	      1.19236302	      0.05375638	      0.39328462	    -15.25385904	     14.66827293	     -5.63804271	     -0.77406791	     21.39274701	      3.20070724	     -2.64862513	    -57.60308932	      0.63725621	    -11.10241474	      3.73357850	    -14.12829056	      2.82671282	      3.42904751
      0.79966667	      0.25982580	      2.99725120	      1.74165063	     -0.31934032	      1.01767834	      0.30395060	      0.58962736	     -0.03496073	      0.38748813	    -14.75804529	     14.56686584	     -5.70723998	     -0.82492796	     21.57215858	      3.33611547	     -2.57064423	    -56.42496993	      1.03900346	    -11.15651425	      3.57068652	    -14.21520390	      2.64661650	      3.61466158
      0.80383333	      0.26444453	      3.08212830	      1.77793880	     -0.31415544	      1.01813173	      0.30385144	      0.04083546	     -0.12042160	      0.36056342	    -14.29480560	     14.42710355	     -5.75695962	     -0.87607734	     21.77418906	      3.47486310	     -2.46698838	    -55.20603659	      1.44315100	    -11.18523980	      3.39221567	    -14.25539980	      2.49477084	      3.76066828
      0.80800000	      0.26617881	      3.16329458	      1.79504858	     -0.30897725	      1.01854217	      0.30374940	     -0.49747866	     -0.20452878	      0.35171488	    -13.84119510	     14.26669368	     -5.78768859	     -0.95405591	     21.95773144	      3.60936018	     -2.36832094	    -53.93666586	      1.84202913	    -11.23771904	      3.07368618	    -14.29839455	      2.35227567	      3.91829489
      0.81216667	      0.19720072	      3.25255357	      1.84477482	     -0.30379325	      1.01881799	      0.30359473	     -0.94136318	     -0.30481140	      0.26312913	    -13.43728723	     14.13966890	     -5.77906286	     -0.97765658	     22.20120541	      3.77042484	     -2.22147084	    -52.61689381	      2.15477983	    -11.20970850	      2.98623447	    -14.22884881	      2.20027017	      3.99310729
      0.81633333	      0.23073844	      3.33519451	      1.87830870	     -0.29859330	      1.01920285	      0.30345641	     -1.53203862	     -0.39074395	      0.22462332	    -12.95203390	     14.02295001	     -5.79074591	     -1.01507815	     22.30726433	      3.91621375	     -2.08325135	    -51.24153441	      2.42617153	    -11.23667393	      2.81304716	    -14.31117489	      2.05560954	      4.13971357
      0.82050000	      0.21829831	      3.41196844	      1.91026025	     -0.29339553	      1.01949236	      0.30330483	     -2.05527091	     -0.47600610	      0.16471573	    -12.50212553	     13.87865057	     -5.78575777	     -1.04840971	     22.44339973	      4.06111217	     -1.92637501	    -49.81903565	      2.67279618	    -11.24409633	      2.64433874	    -14.33406433	      1.91647952	      4.26055757
      0.82466667	      0.15207275	      3.47628157	      1.94383895	     -0.28820860	      1.01965773	      0.30312696	     -2.49957486	     -0.55303550	      0.07896123	    -12.09442846	     13.70346935	     -5.74906610	     -1.06681850	     22.62284925	      4.19862993	     -1.75186745	    -48.36203645	      2.91617429	    -11.20618438	      2.55748982	    -14.27575403	      1.79883442	      4.34685190
      0.82883333	      0.18494235	      3.52265722	      1.97664775	     -0.28299985	      1.01992442	      0.30296270	     -3.09145815	     -0.60047634	      0.04415025	    -11.60094948	     13.56732884	     -5.76258934	     -1.09485369	     22.67060672	      4.31444673	     -1.56011041	    -46.85422459	      3.08111306	    -11.23730119	      2.37619098	    -14.35572784	      1.70160991	      4.48764472
      0.83300000	      0.14996177	      3.57477716	      2.01236221	     -0.27780000	      1.02006090	      0.30276594	     -3.58540703	     -0.66180266	     -0.02455013	    -11.15973390	     13.40671115	     -5.74706618	     -1.11739281	     22.77131452	      4.44465451	     -1.34708636	    -45.30126283	      3.22577197	    -11.22822213	      2.21272722	    -14.34936613	      1.59464227	      4.59512517
      0.83716667	      0.09832790	      3.62209586	      2.04363793	     -0.27258298	      1.02012927	      0.30258031	     -4.04550302	     -0.72073014	     -0.12584277	    -10.75232932	     13.21868421	     -5.69968089	     -1.13179689	     22.86919344	      4.56431879	     -1.13227877	    -43.71024853	      3.36295659	    -11.18220635	      2.10915855	    -14.30289971	      1.48910983	      4.68389443
      0.84133333	      0.06373430	      3.65894128	      2.07978885	     -0.26735338	      1.02018754	      0.30236712	     -4.53926449	     -0.76685350	     -0.21340732	    -10.31267322	     13.04456233	     -5.66119125	     -1.14371909	     22.92601170	      4.67722188	     -0.89748490	    -42.07568870	      3.45398133	    -11.16407634	      2.00705106	    -14.28912789	      1.40499603	      4.78132982
      0.84550000	      0.07414033	      3.69676581	      2.10863106	     -0.26211930	      1.02026292	      0.30215522	     -5.09317390	     -0.81114683	     -0.27846573	     -9.84890798	     12.91083449	     -5.62929189	     -1.15410763	     22.90926474	      4.79073029	     -0.64737082	    -40.39525275	      3.48792156	    -11.21069647	      1.85202388	    -14.35010713	      1.33308512	      4.89352784
